REM Ripping Tool: trurip

FILE "Builder Land (1993)(Micro World)(JP)(en)[AKA Builderland - The Story of Melba].img" BINARY
  TRACK 01 AUDIO
    INDEX 01 00:00:00
  TRACK 02 MODE1/2352
    INDEX 00 00:44:65
    INDEX 01 00:47:65
  TRACK 03 AUDIO
    INDEX 00 00:55:57
    INDEX 01 00:57:57
  TRACK 04 AUDIO
    INDEX 01 06:57:30
  TRACK 05 AUDIO
    INDEX 01 13:13:15
  TRACK 06 AUDIO
    INDEX 01 18:01:73
  TRACK 07 AUDIO
    INDEX 01 18:32:12
  TRACK 08 AUDIO
    INDEX 01 18:48:52

REM DISC HASHES
REM CRC32 : 726ab436
REM MD5   : 2bee51d6eccf303fa3cd0728523497e2
REM SHA1  : 981406d19f4ef53def2a69a30b504df4ee600773

REM Gap Append Method: Prev [crc32]
REM Trk 01: ccd25d2f
REM Trk 02: d6392389
REM Trk 03: 67fcb1f9
REM Trk 04: c018bfc2
REM Trk 05: 164a7df4
REM Trk 06: 6161f0a9
REM Trk 07: 8a5a578b
REM Trk 08: cad0d2c8

REM Gap Append Method: Prev [md5]
REM Trk 01: 7938d9aa88f644b60389fa8246f2052e
REM Trk 02: c521dd4e9757cef1fc5c50e028acf9a9
REM Trk 03: 1f3ff4e1892bab0880c6dfbee16eff6d
REM Trk 04: 890c1d9d54564272862783332a12c4a7
REM Trk 05: 612d6f9fe9b2b40dfbff6cc42270efc6
REM Trk 06: 35beb2776a3eec20a53e44202a70b2fd
REM Trk 07: 2fcae8afabfe01522e0ae114cfb56af0
REM Trk 08: 7d011e4bc9e594ba1a4069bf632ee182

REM Gap Append Method: Prev [sha1]
REM Trk 01: 0fc7f8840f23f43ebfb7041f71427c165f368105
REM Trk 02: 50be71ff8dc491725895ac91eb8bb74ef5ab7b05
REM Trk 03: 6e126c53b00c71eeeef5a592cc2f040d11488a64
REM Trk 04: 2d0a8fb059af7f7f9023c15b56b83380db1a1a1a
REM Trk 05: d525898ffaf35cbf34f8cf7ffd51306939210219
REM Trk 06: 1b59d37f84895eb32996946af4ff41cb1055ccbd
REM Trk 07: 02f864769e12ee0ec1425d1a61928995a0f11f95
REM Trk 08: 8ab386b2894d63adf89d95402c0657a21e8b1895

REM Gap Append Method: None [crc32]
REM Trk 01: b979500c
REM Trk 02: 77fd05c6
REM Trk 03: 67fcb1f9
REM Trk 04: c018bfc2
REM Trk 05: 164a7df4
REM Trk 06: 6161f0a9
REM Trk 07: 8a5a578b
REM Trk 08: cad0d2c8
REM Gap 02: 16e86594
REM Gap 03: 7abe247f

REM Gap Append Method: None [md5]
REM Trk 01: a25a2c129b7100092cc40e9b6e176a63
REM Trk 02: fdba6399ef29a81767d27d9e60d783bd
REM Trk 03: 1f3ff4e1892bab0880c6dfbee16eff6d
REM Trk 04: 890c1d9d54564272862783332a12c4a7
REM Trk 05: 612d6f9fe9b2b40dfbff6cc42270efc6
REM Trk 06: 35beb2776a3eec20a53e44202a70b2fd
REM Trk 07: 2fcae8afabfe01522e0ae114cfb56af0
REM Trk 08: 7d011e4bc9e594ba1a4069bf632ee182
REM Gap 02: fbd314ec9876f082e173fbb5baf092aa
REM Gap 03: 9df204fbc98bb8965081cb30a89715fc

REM Gap Append Method: None [sha1]
REM Trk 01: 9ac3f1a11d434d186466917f1c7955bf7670c910
REM Trk 02: 9da173f4adefa10f3c44e0501ca3bcdceaeb6a64
REM Trk 03: 6e126c53b00c71eeeef5a592cc2f040d11488a64
REM Trk 04: 2d0a8fb059af7f7f9023c15b56b83380db1a1a1a
REM Trk 05: d525898ffaf35cbf34f8cf7ffd51306939210219
REM Trk 06: 1b59d37f84895eb32996946af4ff41cb1055ccbd
REM Trk 07: 02f864769e12ee0ec1425d1a61928995a0f11f95
REM Trk 08: 8ab386b2894d63adf89d95402c0657a21e8b1895
REM Gap 02: 08a9af7bae10b281a8edaad6e9ea6cd1646d0ce0
REM Gap 03: cbe29e0bd725ef1194f8c47619dd42078e841de2

REM Gap Append Method: Next [crc32]
REM Trk 01: b979500c
REM Trk 02: f23af196
REM Trk 03: 4f127c8a
REM Trk 04: c018bfc2
REM Trk 05: 164a7df4
REM Trk 06: 6161f0a9
REM Trk 07: 8a5a578b
REM Trk 08: cad0d2c8

REM Gap Append Method: Next [md5]
REM Trk 01: a25a2c129b7100092cc40e9b6e176a63
REM Trk 02: 49d8f6e61a3f9437b0d23149f47e0b70
REM Trk 03: 3e8cafc0de1fd3be8d0d8b176e033ce7
REM Trk 04: 890c1d9d54564272862783332a12c4a7
REM Trk 05: 612d6f9fe9b2b40dfbff6cc42270efc6
REM Trk 06: 35beb2776a3eec20a53e44202a70b2fd
REM Trk 07: 2fcae8afabfe01522e0ae114cfb56af0
REM Trk 08: 7d011e4bc9e594ba1a4069bf632ee182

REM Gap Append Method: Next [sha1]
REM Trk 01: 9ac3f1a11d434d186466917f1c7955bf7670c910
REM Trk 02: 596cfacdeb2d4f2d7c64aa87137d240f03e06477
REM Trk 03: 3d167947929b4efcdfbae7570c43a8892ec1d74c
REM Trk 04: 2d0a8fb059af7f7f9023c15b56b83380db1a1a1a
REM Trk 05: d525898ffaf35cbf34f8cf7ffd51306939210219
REM Trk 06: 1b59d37f84895eb32996946af4ff41cb1055ccbd
REM Trk 07: 02f864769e12ee0ec1425d1a61928995a0f11f95
REM Trk 08: 8ab386b2894d63adf89d95402c0657a21e8b1895

